<svg xmlns="http://www.w3.org/2000/svg" xmlns:xlink="http://www.w3.org/1999/xlink" width="500" zoomAndPan="magnify" viewBox="0 0 375 374.999991" height="500" preserveAspectRatio="xMidYMid meet" version="1.0"><defs><g/><clipPath id="a8189a586b"><rect x="0" width="343" y="0" height="256"/></clipPath></defs><g transform="matrix(1, 0, 0, 1, 17, 65)"><g clip-path="url(#a8189a586b)"><g fill="#000000" fill-opacity="1"><g transform="translate(0.337394, 205.655027)"><g><path d="M 153.125 -34.03125 L 153.125 0 L 51.046875 0 L 51.046875 -34.03125 Z M 17.015625 -34.03125 L 17.015625 -170.140625 L 51.046875 -170.140625 L 51.046875 -34.03125 Z M 153.125 -34.03125 L 153.125 -170.140625 L 187.15625 -170.140625 L 187.15625 -34.03125 Z M 153.125 -34.03125 "/></g></g></g><g fill="#000000" fill-opacity="1"><g transform="translate(204.497974, 205.655027)"><g><path d="M 17.015625 0 L 17.015625 -34.03125 L 51.046875 -34.03125 L 51.046875 -136.109375 L 17.015625 -136.109375 L 17.015625 -170.140625 L 119.09375 -170.140625 L 119.09375 -136.109375 L 85.078125 -136.109375 L 85.078125 -34.03125 L 119.09375 -34.03125 L 119.09375 0 Z M 17.015625 0 "/></g></g></g></g></g></svg>